<svg xmlns="http://www.w3.org/2000/svg" xmlns:xlink="http://www.w3.org/1999/xlink" width="1640" height="405.269" viewBox="0 0 1640 405.269">
  <defs>
    <linearGradient id="linear-gradient" y1="0.5" x2="1" y2="0.5" gradientUnits="objectBoundingBox">
      <stop offset="0" stop-color="#fff"/>
      <stop offset="1" stop-color="#fff"/>
    </linearGradient>
    <linearGradient id="linear-gradient-5" x1="-5.93" y1="7.336" x2="-4.93" y2="7.336" gradientUnits="objectBoundingBox">
      <stop offset="0" stop-color="#40bbf0"/>
      <stop offset="1" stop-color="#fff"/>
    </linearGradient>
    <clipPath id="clip-path">
      <path id="Trazado_1" data-name="Trazado 1" d="M238.813,246.369q-25.808,0-44.46-8.51a64.946,64.946,0,0,1-28.941-24.986q-10.293-16.445-11.385-40.866-.284-11.252-.279-24.157c0-8.6.09-16.817.279-24.7q1.087-23.847,11.522-40.6A65.232,65.232,0,0,1,194.632,57.3q18.661-8.51,44.181-8.51a118.09,118.09,0,0,1,33.473,4.537A83.793,83.793,0,0,1,299.171,66.5a62.114,62.114,0,0,1,17.977,20.857,60.483,60.483,0,0,1,6.72,27.581,4.628,4.628,0,0,1-1.506,4.106,6.089,6.089,0,0,1-4.253,1.653H281.061a8.647,8.647,0,0,1-5.479-1.52q-1.932-1.506-3.3-5.626-3.85-14.534-12.484-19.9-8.638-5.328-21.269-5.337-15.088,0-23.869,8.373t-9.6,27.847q-.817,22.512,0,46.089.824,19.493,9.6,27.847,8.773,8.375,23.869,8.373,12.609,0,21.406-5.494,8.773-5.456,12.346-19.739c.725-2.747,1.785-4.622,3.159-5.626a9.3,9.3,0,0,1,5.617-1.52H318.11a6.089,6.089,0,0,1,4.253,1.653,4.614,4.614,0,0,1,1.506,4.111,60.478,60.478,0,0,1-6.72,27.577,62.116,62.116,0,0,1-17.977,20.857,83.9,83.9,0,0,1-26.885,13.175A118.262,118.262,0,0,1,238.813,246.369Z" transform="translate(-153.748 -48.79)" fill="url(#linear-gradient)"/>
    </clipPath>
    <clipPath id="clip-path-2">
      <path id="Trazado_2" data-name="Trazado 2" d="M262.741,241.455a7.024,7.024,0,0,1-6.853-6.857V175.6L192.225,58.146c-.18-.535-.369-1.047-.549-1.5a4.227,4.227,0,0,1-.265-1.515,5.508,5.508,0,0,1,1.776-3.973,5.844,5.844,0,0,1,4.253-1.79h34.3a9.478,9.478,0,0,1,6.455,2.055,13.511,13.511,0,0,1,3.149,3.708l39.246,70.805L320.1,55.134a13.511,13.511,0,0,1,3.149-3.708A9.462,9.462,0,0,1,329.7,49.37H364a5.415,5.415,0,0,1,4.12,1.79,5.728,5.728,0,0,1,1.643,3.973,7.907,7.907,0,0,1-.137,1.515,14.571,14.571,0,0,1-.412,1.5L305.548,175.6V234.6a6.585,6.585,0,0,1-2.055,4.8,6.937,6.937,0,0,1-5.077,2.055Z" transform="translate(-191.41 -49.37)" fill="url(#linear-gradient)"/>
    </clipPath>
    <clipPath id="clip-path-3">
      <path id="Trazado_3" data-name="Trazado 3" d="M231.645,241.455a6.131,6.131,0,0,1-5.763-5.764,9.977,9.977,0,0,1,.279-2.477L290.64,57.052a10.914,10.914,0,0,1,3.429-5.337c1.743-1.563,4.163-2.344,7.279-2.344h40.605a10.5,10.5,0,0,1,7.269,2.344,10.915,10.915,0,0,1,3.429,5.337l64.209,176.164a5.5,5.5,0,0,1-1.236,6.455,5.81,5.81,0,0,1-4.243,1.785H377.628c-2.747,0-4.8-.691-6.176-2.055a10.426,10.426,0,0,1-2.614-3.708l-10.693-28H284.881l-10.428,28a11.165,11.165,0,0,1-2.467,3.708c-1.288,1.364-3.476,2.055-6.588,2.055Zm64.488-73.268h51.033L321.645,95.753Z" transform="translate(-225.882 -49.37)" fill="url(#linear-gradient)"/>
    </clipPath>
    <clipPath id="clip-path-4">
      <path id="Trazado_4" data-name="Trazado 4" d="M277.767,241.455a6.49,6.49,0,0,1-4.949-2.055,6.875,6.875,0,0,1-1.918-4.8V56.228a6.579,6.579,0,0,1,6.867-6.858H306.85c3.107,0,5.347.691,6.72,2.055a14.7,14.7,0,0,1,2.6,3.173L383.13,159.952V56.228a6.585,6.585,0,0,1,6.858-6.858h32.923a6.585,6.585,0,0,1,6.867,6.858V234.309a7.21,7.21,0,0,1-1.923,5.091,6.48,6.48,0,0,1-4.944,2.055H393.558q-4.39,0-6.455-2.212a26.092,26.092,0,0,1-2.6-3.017L317.548,134.719V234.6a6.819,6.819,0,0,1-1.923,4.8,6.473,6.473,0,0,1-4.935,2.055Z" transform="translate(-270.9 -49.37)" fill="url(#linear-gradient)"/>
    </clipPath>
    <clipPath id="clip-path-5">
      <path id="Trazado_11" data-name="Trazado 11" d="M529.728,49.37l-83.436,99.992v.114l-83.213-40.1H301.394L279.737,49.441l-21.482,59.932H196.391l-83.218,40.1L29.7,49.441v.028c15.069,29.073,23.8,63.38,23.8,100.144,0,36.527-8.629,70.616-23.523,99.571a310.443,310.443,0,0,1,16.168,99.5A310.291,310.291,0,0,1,29.7,449.008v.137l83.469-199.506,41.855,39.53,21.136-20.141,21.33,20.141,40.937-39.009,41.306,39.009,41.391-39.44,41.761,39.44,20.743-19.763,20.932,19.763,41.491-39.53h.237l83.436,199.435v-.137a314.2,314.2,0,0,1-.27-199.819c-14.9-28.955-23.528-63.048-23.528-99.576,0-36.76,8.733-71.066,23.8-100.144ZM199.081,249.217c-11.489,0-20.8-11.181-20.8-24.967s9.311-24.967,20.8-24.967,20.8,11.186,20.8,24.967S210.575,249.217,199.081,249.217Zm161.3,0c-11.494,0-20.8-11.181-20.8-24.967s9.311-24.967,20.8-24.967,20.8,11.186,20.8,24.967S371.868,249.217,360.379,249.217Z" transform="translate(-29.704 -49.37)" fill="url(#linear-gradient-5)"/>
    </clipPath>
    <clipPath id="clip-path-6">
      <path id="Trazado_12" data-name="Trazado 12" d="M363.866,221.221H307.555l-10.748-34.979-10.379,34.979H140.9l-10.693-34.8-10.334,34.8H63.907L47.329,102.094V221.221L80.8,261.035H346.979l33.467-39.809V99.723Z" transform="translate(-47.329 -99.723)" fill="url(#linear-gradient-5)"/>
    </clipPath>
  </defs>
  <g id="Grupo_31" data-name="Grupo 31" transform="translate(-140 -287)">
    <g id="Grupo_25" data-name="Grupo 25" transform="translate(727.452 287)">
      <g id="Grupo_1" data-name="Grupo 1" transform="translate(0 0)" clip-path="url(#clip-path)">
        <rect id="Rectángulo_2" data-name="Rectángulo 2" width="713.691" height="197.545" transform="translate(-0.001 0.033)" fill="url(#linear-gradient)"/>
      </g>
    </g>
    <g id="Grupo_26" data-name="Grupo 26" transform="translate(905.813 289.747)">
      <g id="Grupo_3" data-name="Grupo 3" transform="translate(0 0)" clip-path="url(#clip-path-2)">
        <rect id="Rectángulo_3" data-name="Rectángulo 3" width="713.691" height="197.545" transform="translate(-178.362 -2.714)" fill="url(#linear-gradient)"/>
      </g>
    </g>
    <g id="Grupo_27" data-name="Grupo 27" transform="translate(1069.066 289.747)">
      <g id="Grupo_5" data-name="Grupo 5" transform="translate(0 0)" clip-path="url(#clip-path-3)">
        <rect id="Rectángulo_4" data-name="Rectángulo 4" width="713.691" height="197.545" transform="translate(-341.616 -2.714)" fill="url(#linear-gradient)"/>
      </g>
    </g>
    <g id="Grupo_28" data-name="Grupo 28" transform="translate(1282.264 289.747)">
      <g id="Grupo_7" data-name="Grupo 7" transform="translate(0 0)" clip-path="url(#clip-path-4)">
        <rect id="Rectángulo_5" data-name="Rectángulo 5" width="713.691" height="197.545" transform="translate(-554.813 -2.714)" fill="url(#linear-gradient)"/>
      </g>
    </g>
    <path id="Trazado_31" data-name="Trazado 31" d="M162.373,285.307a6.03,6.03,0,0,1-4.518-1.785,6.109,6.109,0,0,1-1.79-4.532V99.814a6.486,6.486,0,0,1,1.79-4.8,6.12,6.12,0,0,1,4.518-1.785H176.1a6.744,6.744,0,0,1,4.944,1.653,11.678,11.678,0,0,1,2.188,2.747l57.9,110.842L299.57,97.626a12.843,12.843,0,0,1,2.065-2.747c1-1.094,2.6-1.653,4.8-1.653h13.44a6.153,6.153,0,0,1,6.588,6.588V278.989a6.16,6.16,0,0,1-1.785,4.532,6.423,6.423,0,0,1-4.8,1.785h-13.44a6.076,6.076,0,0,1-4.532-1.785,6.153,6.153,0,0,1-1.776-4.532V144L254.3,233.459A9.05,9.05,0,0,1,251,237.7a9.486,9.486,0,0,1-5.484,1.515h-8.506a8.691,8.691,0,0,1-5.484-1.515,12.106,12.106,0,0,1-3.292-4.243L182.136,144V278.989a6.16,6.16,0,0,1-1.785,4.532,6.076,6.076,0,0,1-4.523,1.785Z" transform="translate(582.36 404.215)" fill="#2e2e2d"/>
    <path id="Trazado_32" data-name="Trazado 32" d="M277.055,290.205q-23.6,0-40.33-8.1a56.685,56.685,0,0,1-25.8-24.967q-9.043-16.879-10.149-42.381-.27-12.091-.27-23.2,0-11.089.27-23.182,1.087-25.254,10.561-42.111A60.556,60.556,0,0,1,237.686,101q16.864-8.34,39.369-8.354,22.221,0,39.1,8.354a61.318,61.318,0,0,1,26.483,25.256q9.6,16.879,10.428,42.111.54,12.1.549,23.182,0,11.117-.549,23.2-.817,25.524-10.016,42.381A57.409,57.409,0,0,1,317.115,282.1Q300.386,290.208,277.055,290.205Zm0-23.333q20.85,0,34.164-12.616,13.3-12.631,14.4-40.889.554-12.325.549-22.083c0-6.5-.18-13.753-.549-21.818q-.554-18.924-6.99-30.726-6.464-11.785-17.148-17.281a57.034,57.034,0,0,0-48.845,0q-10.705,5.491-17.148,17.281t-7.27,30.726c-.189,8.065-.279,15.32-.279,21.818s.09,13.867.279,22.083q1.087,28.273,14.534,40.889T277.055,266.872Z" transform="translate(748.38 402.064)" fill="#2e2e2d"/>
    <path id="Trazado_33" data-name="Trazado 33" d="M312.778,290.205q-23.883,0-40.06-7.412-16.2-7.4-24.844-19.071t-9.187-24.565a5.538,5.538,0,0,1,1.785-3.973,5.819,5.819,0,0,1,4.257-1.785h13.99a6.744,6.744,0,0,1,4.944,1.653,8.216,8.216,0,0,1,2.188,3.841,33.983,33.983,0,0,0,6.867,13.038q5.207,6.436,14.951,10.7,9.725,4.255,25.109,4.243,23.6,0,34.714-8.354A26.61,26.61,0,0,0,358.6,236.146q0-9.611-5.891-15.5-5.918-5.9-17.977-10.566-12.076-4.653-31.285-10.158-20.033-5.761-33.2-12.616T250.62,170.294q-6.443-10.151-6.441-25.791a45.9,45.9,0,0,1,7.952-26.483q7.949-11.657,23.054-18.512,15.088-6.869,36.22-6.857,17.013,0,29.765,4.513a63.7,63.7,0,0,1,21.269,12.081,55.111,55.111,0,0,1,12.9,16.187A40.269,40.269,0,0,1,380,142.315a6.074,6.074,0,0,1-1.373,3.708,5.211,5.211,0,0,1-4.39,1.762H359.691a8.332,8.332,0,0,1-3.973-1.094,7.093,7.093,0,0,1-3.159-4.111q-1.641-11.252-12.616-18.934T311.4,115.965q-17.837,0-28.95,6.857t-11.11,21.411c0,6.209,1.729,11.39,5.214,15.5s8.955,7.724,16.457,10.831a282.5,282.5,0,0,0,29.362,9.888q21.943,6.031,35.94,12.754t20.724,16.746q6.713,10.016,6.72,25.659,0,17.283-9.055,29.495T351.332,283.75Q335,290.186,312.778,290.205Z" transform="translate(891.018 402.064)" fill="#2e2e2d"/>
    <path id="Trazado_34" data-name="Trazado 34" d="M338.577,285.307a6.062,6.062,0,0,1-4.523-1.785,6.123,6.123,0,0,1-1.785-4.532V117.653H279.592a6.109,6.109,0,0,1-6.318-6.318V99.814a6.5,6.5,0,0,1,1.785-4.8,6.176,6.176,0,0,1,4.532-1.785H411.845a6.159,6.159,0,0,1,6.587,6.588v11.522a6.109,6.109,0,0,1-1.79,4.532,6.424,6.424,0,0,1-4.8,1.785H359.433V278.989a6.153,6.153,0,0,1-1.776,4.532,6.432,6.432,0,0,1-4.812,1.785Z" transform="translate(1020.233 404.215)" fill="#2e2e2d"/>
    <path id="Trazado_35" data-name="Trazado 35" d="M316.723,285.307a5.948,5.948,0,0,1-4.655-1.785,6.377,6.377,0,0,1-1.653-4.532V99.814a6.788,6.788,0,0,1,1.653-4.8,6.03,6.03,0,0,1,4.655-1.785H430.047a6.055,6.055,0,0,1,4.669,1.785,6.845,6.845,0,0,1,1.639,4.8v10.428a5.732,5.732,0,0,1-6.308,6.318h-93.3v60.088h87.267a6.026,6.026,0,0,1,4.655,1.79,6.744,6.744,0,0,1,1.653,4.8V193.4a6.319,6.319,0,0,1-1.653,4.509,5.941,5.941,0,0,1-4.655,1.785H336.751V262h95.5a5.705,5.705,0,0,1,6.308,6.294v10.7a6.434,6.434,0,0,1-1.643,4.532,5.982,5.982,0,0,1-4.665,1.785Z" transform="translate(1158.986 404.215)" fill="#2e2e2d"/>
    <path id="Trazado_36" data-name="Trazado 36" d="M351.832,285.307a5.941,5.941,0,0,1-4.655-1.785,6.378,6.378,0,0,1-1.653-4.532V99.814a6.788,6.788,0,0,1,1.653-4.8,6.023,6.023,0,0,1,4.655-1.785h66.955q31,0,49.115,14.558,18.108,14.534,18.11,43.072,0,21.141-10.561,34.434T446.781,203.8l42.248,73a6.729,6.729,0,0,1,.824,3.012,5.044,5.044,0,0,1-1.785,3.841,5.741,5.741,0,0,1-3.978,1.653H470.92q-4.66,0-6.858-2.477a42.627,42.627,0,0,1-3.841-4.935L420.431,208.2H372.419v70.786a6.16,6.16,0,0,1-1.785,4.532,6.423,6.423,0,0,1-4.8,1.785Zm20.587-100.419h45.275q20.565,0,30.726-8.638c6.767-5.787,10.149-14.316,10.149-25.659q0-16.751-10.016-25.526t-30.859-8.775H372.419Z" transform="translate(1290.147 404.215)" fill="#2e2e2d"/>
    <g id="Grupo_29" data-name="Grupo 29" transform="translate(140 289.747)">
      <g id="Grupo_9" data-name="Grupo 9" transform="translate(0 0)" clip-path="url(#clip-path-5)">
        <path id="Trazado_37" data-name="Trazado 37" d="M0,0H403.2V500.02H0Z" transform="translate(500.022 0.029) rotate(90)" fill="url(#linear-gradient-5)"/>
      </g>
    </g>
    <g id="Grupo_30" data-name="Grupo 30" transform="translate(223.471 528.211)">
      <g id="Grupo_11" data-name="Grupo 11" transform="translate(0)" clip-path="url(#clip-path-6)">
        <rect id="Rectángulo_7" data-name="Rectángulo 7" width="403.197" height="500.02" transform="translate(416.551 -238.435) rotate(90)" fill="url(#linear-gradient-5)"/>
      </g>
    </g>
  </g>
</svg>
