<svg xmlns="http://www.w3.org/2000/svg" xmlns:xlink="http://www.w3.org/1999/xlink" width="91.597" height="35.268" viewBox="0 0 91.597 35.268">
  <defs>
    <clipPath id="clip-path">
      <path id="Trazado_14" data-name="Trazado 14" d="M154.545,201.944a9.263,9.263,0,0,1-3.869-.741,5.651,5.651,0,0,1-2.518-2.174,7.2,7.2,0,0,1-.991-3.556q-.025-.979-.024-2.1c0-.748.008-1.463.024-2.149a7.183,7.183,0,0,1,1-3.533,5.678,5.678,0,0,1,2.531-2.2,9.2,9.2,0,0,1,3.845-.741,10.291,10.291,0,0,1,2.913.394,7.3,7.3,0,0,1,2.34,1.147,5.405,5.405,0,0,1,1.564,1.815,5.257,5.257,0,0,1,.585,2.4.4.4,0,0,1-.131.358.529.529,0,0,1-.37.144h-3.224a.755.755,0,0,1-.477-.132,1.025,1.025,0,0,1-.287-.49,2.751,2.751,0,0,0-1.086-1.731,3.466,3.466,0,0,0-1.851-.464,2.884,2.884,0,0,0-2.077.729,3.448,3.448,0,0,0-.836,2.423q-.071,1.958,0,4.011a3.444,3.444,0,0,0,.836,2.423,2.886,2.886,0,0,0,2.077.729,3.449,3.449,0,0,0,1.863-.478,2.671,2.671,0,0,0,1.074-1.718.859.859,0,0,1,.275-.49.807.807,0,0,1,.489-.132h3.224a.528.528,0,0,1,.37.144.4.4,0,0,1,.131.357,5.258,5.258,0,0,1-.585,2.4A5.4,5.4,0,0,1,159.8,200.4a7.284,7.284,0,0,1-2.34,1.147A10.276,10.276,0,0,1,154.545,201.944Z" transform="translate(-147.142 -184.75)" fill="#fff"/>
    </clipPath>
    <clipPath id="clip-path-2">
      <path id="Trazado_16" data-name="Trazado 16" d="M191.012,202.046a.611.611,0,0,1-.6-.6v-5.134l-5.54-10.222c-.016-.047-.032-.091-.047-.13a.361.361,0,0,1-.023-.132.481.481,0,0,1,.155-.346.509.509,0,0,1,.37-.155h2.985a.824.824,0,0,1,.561.179,1.168,1.168,0,0,1,.274.323l3.415,6.162L196,185.832a1.175,1.175,0,0,1,.274-.323.823.823,0,0,1,.562-.179h2.985a.471.471,0,0,1,.359.155.5.5,0,0,1,.143.346.69.69,0,0,1-.012.132,1.261,1.261,0,0,1-.036.13l-5.54,10.222v5.134a.573.573,0,0,1-.178.418.606.606,0,0,1-.442.179Z" transform="translate(-184.804 -185.33)" fill="#fff"/>
    </clipPath>
    <clipPath id="clip-path-3">
      <path id="Trazado_18" data-name="Trazado 18" d="M219.778,202.046a.534.534,0,0,1-.5-.5.865.865,0,0,1,.024-.216L224.911,186a.95.95,0,0,1,.3-.464.915.915,0,0,1,.633-.2h3.534a.913.913,0,0,1,.632.2.947.947,0,0,1,.3.464l5.588,15.33a.478.478,0,0,1-.108.561.506.506,0,0,1-.369.156h-2.937a.735.735,0,0,1-.537-.179.9.9,0,0,1-.227-.323l-.931-2.437H224.41l-.908,2.437a.976.976,0,0,1-.215.323.765.765,0,0,1-.573.179Zm5.612-6.376h4.441l-2.221-6.3Z" transform="translate(-219.276 -185.33)" fill="#fff"/>
    </clipPath>
    <clipPath id="clip-path-4">
      <path id="Trazado_20" data-name="Trazado 20" d="M264.892,202.046a.567.567,0,0,1-.431-.179.6.6,0,0,1-.167-.418V185.927a.572.572,0,0,1,.6-.6h2.531a.808.808,0,0,1,.585.179,1.285,1.285,0,0,1,.226.276l5.827,9.168v-9.026a.573.573,0,0,1,.6-.6h2.865a.572.572,0,0,1,.6.6v15.5a.63.63,0,0,1-.167.443.567.567,0,0,1-.431.179h-2.554a.735.735,0,0,1-.562-.192,2.357,2.357,0,0,1-.226-.263l-5.827-8.834v8.692a.594.594,0,0,1-.167.418.565.565,0,0,1-.429.179Z" transform="translate(-264.294 -185.33)" fill="#fff"/>
    </clipPath>
  </defs>
  <g id="Grupo_32" data-name="Grupo 32" transform="translate(693.957 -466.96)">
    <g id="Grupo_14" data-name="Grupo 14" transform="translate(-693.957 466.96)">
      <path id="Trazado_13" data-name="Trazado 13" d="M154.545,201.944a9.263,9.263,0,0,1-3.869-.741,5.651,5.651,0,0,1-2.518-2.174,7.2,7.2,0,0,1-.991-3.556q-.025-.979-.024-2.1c0-.748.008-1.463.024-2.149a7.183,7.183,0,0,1,1-3.533,5.678,5.678,0,0,1,2.531-2.2,9.2,9.2,0,0,1,3.845-.741,10.291,10.291,0,0,1,2.913.394,7.3,7.3,0,0,1,2.34,1.147,5.405,5.405,0,0,1,1.564,1.815,5.257,5.257,0,0,1,.585,2.4.4.4,0,0,1-.131.358.529.529,0,0,1-.37.144h-3.224a.755.755,0,0,1-.477-.132,1.025,1.025,0,0,1-.287-.49,2.751,2.751,0,0,0-1.086-1.731,3.466,3.466,0,0,0-1.851-.464,2.884,2.884,0,0,0-2.077.729,3.448,3.448,0,0,0-.836,2.423q-.071,1.958,0,4.011a3.444,3.444,0,0,0,.836,2.423,2.886,2.886,0,0,0,2.077.729,3.449,3.449,0,0,0,1.863-.478,2.671,2.671,0,0,0,1.074-1.718.859.859,0,0,1,.275-.49.807.807,0,0,1,.489-.132h3.224a.528.528,0,0,1,.37.144.4.4,0,0,1,.131.357,5.258,5.258,0,0,1-.585,2.4A5.4,5.4,0,0,1,159.8,200.4a7.284,7.284,0,0,1-2.34,1.147A10.276,10.276,0,0,1,154.545,201.944Z" transform="translate(-147.142 -184.75)" fill="#fff"/>
      <g id="Grupo_13" data-name="Grupo 13" transform="translate(0 0)" clip-path="url(#clip-path)">
        <rect id="Rectángulo_9" data-name="Rectángulo 9" width="62.108" height="17.191" transform="translate(0 0.003)" fill="#fff"/>
      </g>
    </g>
    <g id="Grupo_16" data-name="Grupo 16" transform="translate(-678.435 467.199)">
      <path id="Trazado_15" data-name="Trazado 15" d="M191.012,202.046a.611.611,0,0,1-.6-.6v-5.134l-5.54-10.222c-.016-.047-.032-.091-.047-.13a.361.361,0,0,1-.023-.132.481.481,0,0,1,.155-.346.509.509,0,0,1,.37-.155h2.985a.824.824,0,0,1,.561.179,1.168,1.168,0,0,1,.274.323l3.415,6.162L196,185.832a1.175,1.175,0,0,1,.274-.323.823.823,0,0,1,.562-.179h2.985a.471.471,0,0,1,.359.155.5.5,0,0,1,.143.346.69.69,0,0,1-.012.132,1.261,1.261,0,0,1-.036.13l-5.54,10.222v5.134a.573.573,0,0,1-.178.418.606.606,0,0,1-.442.179Z" transform="translate(-184.804 -185.33)" fill="#fff"/>
      <g id="Grupo_15" data-name="Grupo 15" transform="translate(0 0)" clip-path="url(#clip-path-2)">
        <rect id="Rectángulo_10" data-name="Rectángulo 10" width="62.108" height="17.191" transform="translate(-15.522 -0.236)" fill="#fff"/>
      </g>
    </g>
    <g id="Grupo_18" data-name="Grupo 18" transform="translate(-664.228 467.199)">
      <path id="Trazado_17" data-name="Trazado 17" d="M219.778,202.046a.534.534,0,0,1-.5-.5.865.865,0,0,1,.024-.216L224.911,186a.95.95,0,0,1,.3-.464.915.915,0,0,1,.633-.2h3.534a.913.913,0,0,1,.632.2.947.947,0,0,1,.3.464l5.588,15.33a.478.478,0,0,1-.108.561.506.506,0,0,1-.369.156h-2.937a.735.735,0,0,1-.537-.179.9.9,0,0,1-.227-.323l-.931-2.437H224.41l-.908,2.437a.976.976,0,0,1-.215.323.765.765,0,0,1-.573.179Zm5.612-6.376h4.441l-2.221-6.3Z" transform="translate(-219.276 -185.33)" fill="#fff"/>
      <g id="Grupo_17" data-name="Grupo 17" transform="translate(0 0)" clip-path="url(#clip-path-3)">
        <rect id="Rectángulo_11" data-name="Rectángulo 11" width="62.108" height="17.191" transform="translate(-29.729 -0.236)" fill="#fff"/>
      </g>
    </g>
    <g id="Grupo_20" data-name="Grupo 20" transform="translate(-645.675 467.199)">
      <path id="Trazado_19" data-name="Trazado 19" d="M264.892,202.046a.567.567,0,0,1-.431-.179.6.6,0,0,1-.167-.418V185.927a.572.572,0,0,1,.6-.6h2.531a.808.808,0,0,1,.585.179,1.285,1.285,0,0,1,.226.276l5.827,9.168v-9.026a.573.573,0,0,1,.6-.6h2.865a.572.572,0,0,1,.6.6v15.5a.63.63,0,0,1-.167.443.567.567,0,0,1-.431.179h-2.554a.735.735,0,0,1-.562-.192,2.357,2.357,0,0,1-.226-.263l-5.827-8.834v8.692a.594.594,0,0,1-.167.418.565.565,0,0,1-.429.179Z" transform="translate(-264.294 -185.33)" fill="#fff"/>
      <g id="Grupo_19" data-name="Grupo 19" transform="translate(0 0)" clip-path="url(#clip-path-4)">
        <rect id="Rectángulo_12" data-name="Rectángulo 12" width="62.108" height="17.191" transform="translate(-48.282 -0.236)" fill="#fff"/>
      </g>
    </g>
    <path id="Trazado_21" data-name="Trazado 21" d="M150.008,245.9a.532.532,0,0,1-.549-.55V229.758a.563.563,0,0,1,.156-.417.534.534,0,0,1,.393-.156H151.2a.587.587,0,0,1,.43.144,1.014,1.014,0,0,1,.19.239l5.039,9.646,5.085-9.646a1.128,1.128,0,0,1,.18-.239.543.543,0,0,1,.418-.144h1.17a.536.536,0,0,1,.573.573v15.593a.536.536,0,0,1-.156.394.56.56,0,0,1-.417.155h-1.17a.53.53,0,0,1-.549-.55V233.6l-3.989,7.784a.783.783,0,0,1-.286.369.823.823,0,0,1-.477.132h-.74a.755.755,0,0,1-.477-.132,1.046,1.046,0,0,1-.286-.369l-4.012-7.784v11.747a.536.536,0,0,1-.155.394.53.53,0,0,1-.394.155Z" transform="translate(-842.461 256.088)" fill="#fff"/>
    <path id="Trazado_22" data-name="Trazado 22" d="M200.561,245.8a7.99,7.99,0,0,1-3.51-.706,4.932,4.932,0,0,1-2.245-2.172,8.537,8.537,0,0,1-.883-3.688q-.023-1.053-.023-2.019t.023-2.017a8.143,8.143,0,0,1,.919-3.665,5.268,5.268,0,0,1,2.293-2.2,8.381,8.381,0,0,1,6.829,0,5.331,5.331,0,0,1,2.3,2.2,7.851,7.851,0,0,1,.908,3.665q.047,1.052.048,2.017t-.048,2.019a8.2,8.2,0,0,1-.872,3.688,4.993,4.993,0,0,1-2.257,2.172A7.929,7.929,0,0,1,200.561,245.8Zm0-2.031a4.145,4.145,0,0,0,2.973-1.1,5.005,5.005,0,0,0,1.253-3.558q.048-1.073.048-1.922c0-.565-.016-1.2-.048-1.9a5.933,5.933,0,0,0-.608-2.674,3.543,3.543,0,0,0-1.492-1.5,4.963,4.963,0,0,0-4.251,0,3.536,3.536,0,0,0-1.492,1.5,6.119,6.119,0,0,0-.633,2.674c-.016.7-.024,1.333-.024,1.9s.008,1.207.024,1.922a4.969,4.969,0,0,0,1.265,3.558A4.188,4.188,0,0,0,200.561,243.771Z" transform="translate(-868.586 256.426)" fill="#fff"/>
    <path id="Trazado_23" data-name="Trazado 23" d="M238.528,245.8a8.366,8.366,0,0,1-3.486-.645,5.434,5.434,0,0,1-2.162-1.66,3.821,3.821,0,0,1-.8-2.138.482.482,0,0,1,.155-.346.506.506,0,0,1,.37-.155h1.217a.587.587,0,0,1,.43.144.715.715,0,0,1,.19.334,2.972,2.972,0,0,0,.6,1.135,3.365,3.365,0,0,0,1.3.931,5.5,5.5,0,0,0,2.185.369,5.038,5.038,0,0,0,3.021-.727,2.316,2.316,0,0,0,.966-1.947,1.822,1.822,0,0,0-.513-1.349,4.5,4.5,0,0,0-1.564-.919q-1.051-.4-2.723-.884a15.771,15.771,0,0,1-2.889-1.1,4.332,4.332,0,0,1-1.707-1.481,4.119,4.119,0,0,1-.56-2.244,3.994,3.994,0,0,1,.692-2.3,4.717,4.717,0,0,1,2.006-1.611,7.566,7.566,0,0,1,3.152-.6A7.744,7.744,0,0,1,241,229a5.544,5.544,0,0,1,1.851,1.051,4.79,4.79,0,0,1,1.122,1.409,3.5,3.5,0,0,1,.406,1.469.528.528,0,0,1-.12.322.452.452,0,0,1-.382.154H242.61a.73.73,0,0,1-.346-.1.619.619,0,0,1-.275-.358,2.415,2.415,0,0,0-1.1-1.648,4.247,4.247,0,0,0-2.483-.668,4.755,4.755,0,0,0-2.519.6,2.036,2.036,0,0,0-.967,1.864,2.015,2.015,0,0,0,.454,1.348,3.69,3.69,0,0,0,1.432.943,24.55,24.55,0,0,0,2.556.861,18.94,18.94,0,0,1,3.127,1.109,4.4,4.4,0,0,1,1.8,1.458,3.93,3.93,0,0,1,.585,2.233,4.188,4.188,0,0,1-.788,2.567,4.918,4.918,0,0,1-2.208,1.623A9.13,9.13,0,0,1,238.528,245.8Z" transform="translate(-891.031 256.426)" fill="#fff"/>
    <path id="Trazado_24" data-name="Trazado 24" d="M272.351,245.9a.532.532,0,0,1-.549-.55v-14.04h-4.584a.532.532,0,0,1-.55-.55v-1a.565.565,0,0,1,.155-.417.538.538,0,0,1,.394-.156h11.509a.537.537,0,0,1,.573.573v1a.532.532,0,0,1-.156.395.558.558,0,0,1-.417.155h-4.561v14.04a.535.535,0,0,1-.155.394.561.561,0,0,1-.419.155Z" transform="translate(-911.364 256.088)" fill="#fff"/>
    <path id="Trazado_25" data-name="Trazado 25" d="M304.358,245.9a.519.519,0,0,1-.405-.155.557.557,0,0,1-.144-.394V229.758a.592.592,0,0,1,.144-.417.525.525,0,0,1,.405-.156h9.862a.527.527,0,0,1,.406.156.6.6,0,0,1,.143.417v.908a.5.5,0,0,1-.549.55H306.1v5.229H313.7a.526.526,0,0,1,.405.155.588.588,0,0,1,.144.418v.884a.55.55,0,0,1-.144.392.517.517,0,0,1-.405.155H306.1v5.422h8.31a.5.5,0,0,1,.549.548v.931a.56.56,0,0,1-.143.394.522.522,0,0,1-.406.155Z" transform="translate(-933.198 256.088)" fill="#fff"/>
    <path id="Trazado_26" data-name="Trazado 26" d="M339.467,245.9a.519.519,0,0,1-.405-.155.555.555,0,0,1-.144-.394V229.758a.59.59,0,0,1,.144-.417.525.525,0,0,1,.405-.156h5.827a6.637,6.637,0,0,1,4.274,1.267,4.52,4.52,0,0,1,1.576,3.748,4.677,4.677,0,0,1-.919,3,4.767,4.767,0,0,1-2.5,1.611l3.677,6.353a.58.58,0,0,1,.072.262.439.439,0,0,1-.155.334.5.5,0,0,1-.346.144H349.83a.757.757,0,0,1-.6-.216,3.739,3.739,0,0,1-.334-.429l-3.463-6.065h-4.178v6.16a.536.536,0,0,1-.155.394.561.561,0,0,1-.418.155Zm1.792-8.739h3.94a4.045,4.045,0,0,0,2.674-.752,3.265,3.265,0,0,0,.012-4.454,3.994,3.994,0,0,0-2.685-.764h-3.94Z" transform="translate(-953.838 256.088)" fill="#fff"/>
  </g>
</svg>
