<svg id="Capa_1" data-name="Capa 1" xmlns="http://www.w3.org/2000/svg" xmlns:xlink="http://www.w3.org/1999/xlink" viewBox="0 0 1291.1 358.9"><defs><style>.cls-1{fill:none;}.cls-2{fill:#fff;}.cls-3{clip-path:url(#clip-path);}.cls-4{clip-path:url(#clip-path-2);}.cls-5{clip-path:url(#clip-path-3);}.cls-6{clip-path:url(#clip-path-4);}.cls-7{fill:#3c3c3b;}</style><clipPath id="clip-path" transform="translate(-41.8 -182)"><path class="cls-1" d="M614,363.8c-13.5,0-25.2-2.2-35-6.7a50.1,50.1,0,0,1-22.7-19.6c-5.4-8.6-8.3-19.3-9-32.1-.1-5.8-.1-12.2-.1-19s0-13.2.1-19.4c.6-12.5,3.6-23.2,9.1-31.9a51.1,51.1,0,0,1,22.9-19.9c9.7-4.5,21.4-6.7,34.7-6.7a91.9,91.9,0,0,1,26.3,3.6,64.1,64.1,0,0,1,21.1,10.4,47,47,0,0,1,14.1,16.4,47.9,47.9,0,0,1,5.4,21.6,3.7,3.7,0,0,1-1.2,3.2,4.7,4.7,0,0,1-3.4,1.3H647.2a7.6,7.6,0,0,1-4.3-1.1,9.5,9.5,0,0,1-2.6-4.4c-2-7.7-5.3-12.9-9.8-15.7a32.5,32.5,0,0,0-16.7-4.1c-7.9,0-14.2,2.2-18.8,6.5s-7.1,11.7-7.6,21.9c-.4,11.8-.4,23.9,0,36.2.5,10.2,3,17.5,7.6,22s10.8,6.5,18.8,6.5,12.2-1.4,16.8-4.3,7.8-8.1,9.7-15.5a6.1,6.1,0,0,1,6.9-5.6h29.1a4.7,4.7,0,0,1,3.4,1.3,3.8,3.8,0,0,1,1.2,3.2,46.4,46.4,0,0,1-5.4,21.6,47,47,0,0,1-14.1,16.4,65,65,0,0,1-21.1,10.4A95.6,95.6,0,0,1,614,363.8Z"/></clipPath><clipPath id="clip-path-2" transform="translate(-41.8 -182)"><path class="cls-1" d="M741.4,363.8a5,5,0,0,1-3.9-1.7,5.2,5.2,0,0,1-1.7-3.9V310.5l-51.5-95.1a5.6,5.6,0,0,1-.4-1.2,2.3,2.3,0,0,1-.2-1.2,4.1,4.1,0,0,1,1.4-3.2,4.7,4.7,0,0,1,3.5-1.5h27.7a7.8,7.8,0,0,1,5.3,1.7,12,12,0,0,1,2.5,3.1l31.8,57.2,31.9-57.2a15.7,15.7,0,0,1,2.6-3.1,8.4,8.4,0,0,1,5.3-1.7h27.7a4.5,4.5,0,0,1,3.4,1.5,4.4,4.4,0,0,1,1.3,3.2,4.5,4.5,0,0,1-.1,1.2,2.7,2.7,0,0,1-.3,1.2l-51.5,95.1v47.7a5.2,5.2,0,0,1-1.7,3.9,5.4,5.4,0,0,1-4,1.7Z"/></clipPath><clipPath id="clip-path-3" transform="translate(-41.8 -182)"><path class="cls-1" d="M822.9,363.8a4.7,4.7,0,0,1-3.2-1.4,4.4,4.4,0,0,1-1.4-3.2,14.9,14.9,0,0,1,.2-2.1l52.2-142.5a8.9,8.9,0,0,1,2.8-4.3,8.6,8.6,0,0,1,5.8-1.9h32.8a8.9,8.9,0,0,1,5.9,1.9,9.2,9.2,0,0,1,2.8,4.3l51.9,142.5a7.1,7.1,0,0,1,.4,2.1,4.4,4.4,0,0,1-1.4,3.2,5.2,5.2,0,0,1-3.5,1.4H940.9c-2.2,0-3.9-.5-5-1.7a9.1,9.1,0,0,1-2.1-3l-8.6-22.6H865.9l-8.4,22.6a10.3,10.3,0,0,1-2,3c-1,1.1-2.8,1.7-5.3,1.7Zm52.2-59.3h41.2L895.6,246Z"/></clipPath><clipPath id="clip-path-4" transform="translate(-41.8 -182)"><path class="cls-1" d="M993.9,363.9a5.1,5.1,0,0,1-3.9-1.7,5.4,5.4,0,0,1-1.6-3.9V214.1a5.5,5.5,0,0,1,5.5-5.6h23.6c2.4,0,4.3.6,5.4,1.7a21.3,21.3,0,0,1,2.1,2.6l54.1,85.2V214.1a5.4,5.4,0,0,1,1.6-4,5.8,5.8,0,0,1,4-1.6h26.6a5.8,5.8,0,0,1,4,1.6,5.4,5.4,0,0,1,1.6,4v144a5.6,5.6,0,0,1-5.6,5.8h-23.7a6.8,6.8,0,0,1-5.2-1.8,20.8,20.8,0,0,1-2.1-2.4l-54.1-82.1v80.8a5.6,5.6,0,0,1-5.6,5.6H993.9Z"/></clipPath></defs><path id="SVGID" class="cls-2" d="M490.8,182l-74.9,89.8h0l-74.7-36H285.9l-19.5-53.8L247,235.9H191.5l-74.7,36-75-89.8h0C55.4,208.2,63.2,239,63.2,272s-7.7,63.4-21.1,89.4a279.5,279.5,0,0,1,14.5,89.3,278.6,278.6,0,0,1-14.7,90.1h0l75-179.2,37.6,35.5,19-18.1,19.1,18.1,36.8-35,37,35,37.2-35.4,37.5,35.4,18.7-17.7,18.8,17.7,37.2-35.5h.2l74.9,179.1h0a282.9,282.9,0,0,1-.2-179.4c-13.4-26-21.1-56.6-21.1-89.4s7.6-63.8,21.2-89.9ZM193.9,361.4c-10.3,0-18.8-10-18.8-22.5s8.4-22.4,18.8-22.4,18.7,10,18.7,22.4S204.2,361.4,193.9,361.4Zm144.8,0c-10.2,0-18.7-10-18.7-22.5s8.4-22.4,18.7-22.4,18.8,10,18.8,22.4S349,361.4,338.7,361.4Z" transform="translate(-41.8 -182)"/><polygon id="SVGID-2" data-name="SVGID" class="cls-2" points="359.1 299.7 308.7 299.7 299 268.3 289.7 299.7 159 299.7 149.4 268.5 140.1 299.7 89.9 299.7 75 192.8 75 299.7 105 335.4 344.1 335.4 374 299.7 374 299.7 374 190.7 359.1 299.7"/><path id="SVGID-3" data-name="SVGID" class="cls-2" d="M614,363.8c-13.5,0-25.2-2.2-35-6.7a50.1,50.1,0,0,1-22.7-19.6c-5.4-8.6-8.3-19.3-9-32.1-.1-5.8-.1-12.2-.1-19s0-13.2.1-19.4c.6-12.5,3.6-23.2,9.1-31.9a51.1,51.1,0,0,1,22.9-19.9c9.7-4.5,21.4-6.7,34.7-6.7a91.9,91.9,0,0,1,26.3,3.6,64.1,64.1,0,0,1,21.1,10.4,47,47,0,0,1,14.1,16.4,47.9,47.9,0,0,1,5.4,21.6,3.7,3.7,0,0,1-1.2,3.2,4.7,4.7,0,0,1-3.4,1.3H647.2a7.6,7.6,0,0,1-4.3-1.1,9.5,9.5,0,0,1-2.6-4.4c-2-7.7-5.3-12.9-9.8-15.7a32.5,32.5,0,0,0-16.7-4.1c-7.9,0-14.2,2.2-18.8,6.5s-7.1,11.7-7.6,21.9c-.4,11.8-.4,23.9,0,36.2.5,10.2,3,17.5,7.6,22s10.8,6.5,18.8,6.5,12.2-1.4,16.8-4.3,7.8-8.1,9.7-15.5a6.1,6.1,0,0,1,6.9-5.6h29.1a4.7,4.7,0,0,1,3.4,1.3,3.8,3.8,0,0,1,1.2,3.2,46.4,46.4,0,0,1-5.4,21.6,47,47,0,0,1-14.1,16.4,65,65,0,0,1-21.1,10.4A95.6,95.6,0,0,1,614,363.8Z" transform="translate(-41.8 -182)"/><g class="cls-3"><rect class="cls-2" x="505.3" y="26.5" width="561.1" height="155.26"/></g><path id="SVGID-4" data-name="SVGID" class="cls-2" d="M741.4,363.8a5,5,0,0,1-3.9-1.7,5.2,5.2,0,0,1-1.7-3.9V310.5l-51.5-95.1a5.6,5.6,0,0,1-.4-1.2,2.3,2.3,0,0,1-.2-1.2,4.1,4.1,0,0,1,1.4-3.2,4.7,4.7,0,0,1,3.5-1.5h27.7a7.8,7.8,0,0,1,5.3,1.7,12,12,0,0,1,2.5,3.1l31.8,57.2,31.9-57.2a15.7,15.7,0,0,1,2.6-3.1,8.4,8.4,0,0,1,5.3-1.7h27.7a4.5,4.5,0,0,1,3.4,1.5,4.4,4.4,0,0,1,1.3,3.2,4.5,4.5,0,0,1-.1,1.2,2.7,2.7,0,0,1-.3,1.2l-51.5,95.1v47.7a5.2,5.2,0,0,1-1.7,3.9,5.4,5.4,0,0,1-4,1.7Z" transform="translate(-41.8 -182)"/><g class="cls-4"><rect class="cls-2" x="497.6" y="24.3" width="577.1" height="159.7"/></g><path id="SVGID-5" data-name="SVGID" class="cls-2" d="M822.9,363.8a4.7,4.7,0,0,1-3.2-1.4,4.4,4.4,0,0,1-1.4-3.2,14.9,14.9,0,0,1,.2-2.1l52.2-142.5a8.9,8.9,0,0,1,2.8-4.3,8.6,8.6,0,0,1,5.8-1.9h32.8a8.9,8.9,0,0,1,5.9,1.9,9.2,9.2,0,0,1,2.8,4.3l51.9,142.5a7.1,7.1,0,0,1,.4,2.1,4.4,4.4,0,0,1-1.4,3.2,5.2,5.2,0,0,1-3.5,1.4H940.9c-2.2,0-3.9-.5-5-1.7a9.1,9.1,0,0,1-2.1-3l-8.6-22.6H865.9l-8.4,22.6a10.3,10.3,0,0,1-2,3c-1,1.1-2.8,1.7-5.3,1.7Zm52.2-59.3h41.2L895.6,246Z" transform="translate(-41.8 -182)"/><g class="cls-5"><rect class="cls-2" x="500.2" y="24.3" width="577.1" height="159.7"/></g><path id="SVGID-6" data-name="SVGID" class="cls-2" d="M993.9,363.9a5.1,5.1,0,0,1-3.9-1.7,5.4,5.4,0,0,1-1.6-3.9V214.1a5.5,5.5,0,0,1,5.5-5.6h23.6c2.4,0,4.3.6,5.4,1.7a21.3,21.3,0,0,1,2.1,2.6l54.1,85.2V214.1a5.4,5.4,0,0,1,1.6-4,5.8,5.8,0,0,1,4-1.6h26.6a5.8,5.8,0,0,1,4,1.6,5.4,5.4,0,0,1,1.6,4v144a5.6,5.6,0,0,1-5.6,5.8h-23.7a6.8,6.8,0,0,1-5.2-1.8,20.8,20.8,0,0,1-2.1-2.4l-54.1-82.1v80.8a5.6,5.6,0,0,1-5.6,5.6H993.9Z" transform="translate(-41.8 -182)"/><g class="cls-6"><rect class="cls-2" x="498" y="24.4" width="577" height="159.7"/></g><path class="cls-7" d="M551.5,515.2a4.7,4.7,0,0,1-3.2-1.2,4.4,4.4,0,0,1-1.2-3.2V385.4a4.6,4.6,0,0,1,1.2-3.3,4.4,4.4,0,0,1,3.2-1.3h9.6a4.5,4.5,0,0,1,3.4,1.2,6.7,6.7,0,0,1,1.5,1.9l40.6,77.6,40.9-77.6a12.6,12.6,0,0,1,1.4-1.9,4.4,4.4,0,0,1,3.4-1.2h9.4a4.9,4.9,0,0,1,3.4,1.3,4.6,4.6,0,0,1,1.2,3.3V510.8a4.7,4.7,0,0,1-1.2,3.2,4.3,4.3,0,0,1-3.4,1.2h-9.4a4.5,4.5,0,0,1-3.2-1.2,4.4,4.4,0,0,1-1.3-3.2V416.4l-32,62.5a5.4,5.4,0,0,1-2.3,3,7.7,7.7,0,0,1-3.8,1h-5.9a6.3,6.3,0,0,1-3.9-1,10.7,10.7,0,0,1-2.3-3l-32.3-62.5v94.4a4.7,4.7,0,0,1-1.2,3.2,4,4,0,0,1-3.2,1.2Z" transform="translate(-41.8 -182)"/><path class="cls-7" d="M730.8,515.2c-10.7,0-19.9-1.8-27.4-5.5a38.4,38.4,0,0,1-17.6-16.9q-6.1-11.4-6.9-28.8c-.1-5.5-.2-10.8-.2-15.8s.1-10.3.2-15.8c.5-11.5,2.9-21.1,7.2-28.7A41.3,41.3,0,0,1,704,386.5c7.6-3.8,16.6-5.7,26.8-5.7s19,1.9,26.6,5.7a41.5,41.5,0,0,1,18,17.2c4.4,7.6,6.8,17.2,7.1,28.7.3,5.5.4,10.7.4,15.8s-.1,10.3-.4,15.8c-.3,11.5-2.6,21.2-6.8,28.8A38.6,38.6,0,0,1,758,509.7C750.5,513.4,741.4,515.2,730.8,515.2Zm0-15.8c9.5,0,17.2-2.9,23.2-8.7s9.4-14.9,9.8-27.7c.3-5.6.4-10.7.4-15s-.1-9.3-.4-14.8q-.4-12.9-4.8-21a28.7,28.7,0,0,0-11.6-11.8,39.1,39.1,0,0,0-33.2,0,27,27,0,0,0-11.6,11.8c-2.9,5.4-4.6,12.4-5,21-.1,5.5-.2,10.3-.2,14.8s.1,9.4.2,15c.6,12.8,3.8,22.1,9.9,27.7S721.4,499.4,730.8,499.4Z" transform="translate(-41.8 -182)"/><path class="cls-7" d="M799.7,515.1a4.3,4.3,0,0,1-3.2-1.3,4.4,4.4,0,0,1-1.2-3.2V385.5a4.5,4.5,0,0,1,1.2-3.3,3.9,3.9,0,0,1,3.2-1.3h8.8A5.2,5.2,0,0,1,812,382a3.8,3.8,0,0,1,1.3,1.6l63.6,97.7V385.5a4.5,4.5,0,0,1,1.2-3.3,4,4,0,0,1,3.3-1.3h9.2a4.9,4.9,0,0,1,3.4,1.3,4.5,4.5,0,0,1,1.2,3.3v125a4.8,4.8,0,0,1-1.2,3.3,4.1,4.1,0,0,1-3.2,1.3h-9.3a4.2,4.2,0,0,1-3.2-1.1,11.2,11.2,0,0,0-1.4-1.5l-63.3-96.9v95a4.6,4.6,0,0,1-1.3,3.2,4.5,4.5,0,0,1-3.3,1.3Z" transform="translate(-41.8 -182)"/><path class="cls-7" d="M958.2,515.3c-10.8,0-20-1.7-27.3-5s-13.1-7.8-17-13.1a30.6,30.6,0,0,1-6.3-16.7,4.3,4.3,0,0,1,1.3-2.8,3.8,3.8,0,0,1,2.9-1.2h9.6a4.1,4.1,0,0,1,3.3,1.1,5.3,5.3,0,0,1,1.6,2.7,21.7,21.7,0,0,0,4.7,8.8c2.3,3,5.7,5.4,10.2,7.3s10.1,3,17.1,3q16.1,0,23.7-5.7a18.2,18.2,0,0,0,7.5-15.3c0-4.3-1.3-7.9-4-10.5s-6.7-5.1-12.2-7.2-12.6-4.5-21.3-7a118.1,118.1,0,0,1-22.6-8.6c-6.1-3.1-10.5-7-13.4-11.6s-4.5-10.4-4.5-17.5a31.4,31.4,0,0,1,5.4-18.1c3.7-5.4,8.9-9.5,15.7-12.6s15.1-4.7,24.8-4.7a59.7,59.7,0,0,1,20.3,3.1,43.8,43.8,0,0,1,14.6,8.2,36.3,36.3,0,0,1,8.7,11,27,27,0,0,1,3.2,11.5,4,4,0,0,1-.9,2.5,3.8,3.8,0,0,1-3.1,1.3h-9.9a6.8,6.8,0,0,1-2.7-.7,5.2,5.2,0,0,1-2.2-2.9c-.7-5.1-3.6-9.4-8.6-12.9s-11.4-5.3-19.4-5.3-14.7,1.6-19.8,4.7-7.5,8-7.5,14.7c0,4.2,1.1,7.8,3.5,10.5s6.1,5.3,11.3,7.4a209.4,209.4,0,0,0,20,6.7,153,153,0,0,1,24.5,8.7c6.4,3.1,11.1,6.9,14.1,11.5s4.6,10.4,4.6,17.5-2,14.5-6.2,20.1-9.9,9.8-17.3,12.7S968.3,515.3,958.2,515.3Z" transform="translate(-41.8 -182)"/><path class="cls-7" d="M1061.5,513.6a4.1,4.1,0,0,1-4.3-4.3V397.5h-36.6a4.1,4.1,0,0,1-4.3-4.3v-8a4.7,4.7,0,0,1,1.2-3.4,4.3,4.3,0,0,1,3.1-1.2h91.7a4.5,4.5,0,0,1,3.3,1.2,4.5,4.5,0,0,1,1.2,3.4v8a4.3,4.3,0,0,1-1.2,3.1,4.6,4.6,0,0,1-3.3,1.2H1076V509.3a4.3,4.3,0,0,1-1.2,3.1,4.6,4.6,0,0,1-3.3,1.2Z" transform="translate(-41.8 -182)"/><path class="cls-7" d="M1133.8,515.3a4.3,4.3,0,0,1-3.3-1.2,4.4,4.4,0,0,1-1.2-3.2V385.2a4.5,4.5,0,0,1,1.2-3.4,4.3,4.3,0,0,1,3.3-1.2h79.5a4.2,4.2,0,0,1,3.2,1.2,4.5,4.5,0,0,1,1.2,3.4v7.2a4.3,4.3,0,0,1-1.2,3.3,4.2,4.2,0,0,1-3.2,1.2h-65.5V439H1209a4.5,4.5,0,0,1,3.3,1.3,4.4,4.4,0,0,1,1.1,3.3v7.1a4.3,4.3,0,0,1-1.1,3.2,4.5,4.5,0,0,1-3.3,1.3h-61.2v43.7h67a4.5,4.5,0,0,1,3.3,1.2,4.2,4.2,0,0,1,1.1,3.2v7.6a4.6,4.6,0,0,1-1.1,3.2,4.5,4.5,0,0,1-3.3,1.2Z" transform="translate(-41.8 -182)"/><path class="cls-7" d="M1236.2,515.3a4.3,4.3,0,0,1-3.3-1.2,4.4,4.4,0,0,1-1.2-3.2V385.2a4.5,4.5,0,0,1,1.2-3.4,4.3,4.3,0,0,1,3.3-1.2h47c14.4,0,26,3.3,34.4,10.2s12.7,16.8,12.7,30.2c0,9.9-2.5,17.9-7.5,24.1s-11.6,10.6-20.1,13.1l29.6,51.2a4.8,4.8,0,0,1,.6,2.1,3.4,3.4,0,0,1-1.2,2.7,3.8,3.8,0,0,1-2.7,1.1h-9.3q-3.3,0-4.8-1.8a25.6,25.6,0,0,1-2.6-3.4l-28-48.9h-33.7v49.7a4.2,4.2,0,0,1-4.6,4.4Zm14.4-70.5h31.8c9.6,0,16.7-2.1,21.5-6s7.1-10.1,7.1-18.1-2.3-13.8-7-17.9-11.9-6.1-21.6-6.1h-31.8Z" transform="translate(-41.8 -182)"/></svg>